<svg version="1.1" id="Layer_1" xmlns="http://www.w3.org/2000/svg" xmlns:xlink="http://www.w3.org/1999/xlink" x="0px" y="0px" viewBox="0 0 500 500" style="width: 151px;" xml:space="preserve" data-imageid="message-sent-83" imageName="Message Sent" class="illustrations_image">
<style type="text/css">
	.st0_message-sent-83{fill:#FFFFFF;}
	.st1_message-sent-83{fill:#093F68;}
	.st2_message-sent-83{fill:#FFC9B0;}
	.st3_message-sent-83{fill:#68E1FD;}
	.st4_message-sent-83{fill:#FFBC0E;}
	.st5_message-sent-83{fill:#DFEAEF;}
</style>
<g id="circle_message-sent-83">
	<path class="st0_message-sent-83" d="M427.9,258.4c0.1,32.5-8.9,64.4-25.8,92.2l0,0c-3.4,5.7-7.2,11.1-11.2,16.4c-3.9,5.1-8.1,9.9-12.5,14.6&#10;&#9;&#9;c-14.8,15.4-32.2,28.1-51.5,37.3l0,0c-8.1,3.9-16.4,7.2-25,9.8c-1.6,0.5-3.2,1-4.8,1.4c-29.2,7.9-60,8.3-89.4,1.2&#10;&#9;&#9;c-1.6-0.4-3-0.8-4.6-1.2c-13.4-3.7-26.4-8.9-38.5-15.6c-0.4-0.2-0.8-0.4-1.2-0.6C77.6,365.7,47,257.4,95,171.6&#10;&#9;&#9;s156.4-116.3,242.1-68.3c3.8,2.1,7.4,4.3,11,6.7c5.1,3.4,10,7,14.7,10.9c14.9,12.2,27.7,26.8,37.9,43.1c2.1,3.3,4,6.6,5.9,10.1&#10;&#9;&#9;C420.6,200.1,427.9,229,427.9,258.4z"/>
	<path class="st1_message-sent-83" d="M250,438.1c-14.4,0-28.8-1.7-42.9-5.1c-1.6-0.4-3.1-0.8-4.6-1.2c-13.6-3.7-26.7-9-39-15.8&#10;&#9;&#9;c-0.3-0.1-0.6-0.3-1-0.5l-0.2-0.1c-56.9-31.8-92.1-91.8-92.1-156.9c0-99.1,80.6-179.7,179.7-179.7c35.3-0.1,69.8,10.3,99.2,29.9&#10;&#9;&#9;c21.4,14.2,39.6,32.8,53.2,54.6c2,3.2,4,6.5,5.9,10.2c30.1,56,28.3,123.7-4.6,178.1c0,0.1,0,0.1-0.1,0.2&#10;&#9;&#9;c-6.8,11.2-14.9,21.7-24,31.2c-14.9,15.6-32.5,28.3-52,37.6l-0.1,0.1c-8.2,3.9-16.6,7.2-25.3,9.9c-1.6,0.5-3.2,1-4.9,1.4&#10;&#9;&#9;C282,436,266,438.1,250,438.1z M250,82.4c-97,0-176,78.9-176,176c0,63.8,34.5,122.6,90.2,153.7l0.2,0.1c0.3,0.2,0.6,0.3,0.8,0.5&#10;&#9;&#9;c12.1,6.7,24.9,11.9,38.2,15.5c1.5,0.4,3,0.8,4.5,1.2c29.1,7.1,59.5,6.6,88.4-1.2c1.6-0.4,3.2-0.9,4.8-1.4&#10;&#9;&#9;c8.4-2.6,16.7-5.8,24.6-9.6l0.1-0.1c19.1-9.1,36.4-21.6,51-36.9c4.4-4.6,8.5-9.4,12.4-14.4c4-5.1,7.6-10.5,11-16&#10;&#9;&#9;c0-0.1,0.1-0.1,0.1-0.2c32.3-53.3,34-119.7,4.5-174.6c-1.9-3.6-3.8-6.8-5.8-9.9c-10.1-16.2-22.8-30.6-37.5-42.7&#10;&#9;&#9;c-4.7-3.8-9.5-7.4-14.6-10.8C318.3,92.6,284.5,82.4,250,82.4z M402.1,350.6L402.1,350.6z"/>
</g>
<g id="device_message-sent-83">
	<path class="st2_message-sent-83" d="M402.1,350.6L402.1,350.6c-3.4,5.7-7.2,11.1-11.2,16.4c-3.9,5.1-8.1,9.9-12.5,14.6&#10;&#9;&#9;c-14.8,15.4-32.2,28.1-51.5,37.3l0,0c-8.1,3.9-16.4,7.2-25,9.8v-17.2c0-5.5-17.4-25.4-31.9-40.9c-10.3-11-19.1-19.9-19.1-19.9&#10;&#9;&#9;l15.5-28.2l22.2-40.5l0.1-0.3l2.8-5.1l7.3-13.3c0,0,17.8,8.4,38.4,20.6c24.9,14.8,54,35.1,61.2,52.9&#10;&#9;&#9;C400,341.3,401.3,345.9,402.1,350.6z"/>
	<path class="st1_message-sent-83" d="M301.8,430.5c-1,0-1.9-0.8-1.9-1.9c0,0,0,0,0,0v-17.1c0-1.4-2.3-8.4-31.4-39.6c-10.1-10.9-18.9-19.7-19-19.8&#10;&#9;&#9;c-0.6-0.6-0.7-1.5-0.3-2.2l48-87.4c0.5-0.9,1.6-1.2,2.5-0.8c0.2,0.1,18.1,8.5,38.5,20.7c35.2,20.8,56,38.9,62,53.8&#10;&#9;&#9;c1.7,4.6,3,9.4,3.8,14.2c0,0.1,0,0.2,0,0.3l0,0c0,0.4-0.1,0.7-0.3,1c-6.8,11.2-14.9,21.7-24,31.2c-14.9,15.6-32.5,28.3-52,37.6&#10;&#9;&#9;l-0.1,0.1c-8.2,3.9-16.6,7.2-25.3,9.9C302.2,430.5,302,430.5,301.8,430.5z M253.1,350.4c2.6,2.6,9.9,10.1,18.1,18.9&#10;&#9;&#9;c32.4,34.8,32.4,40.1,32.4,42.2V426c7.6-2.4,15-5.4,22.2-8.8l0.1-0.1c19.1-9.1,36.4-21.6,51-36.9c4.4-4.6,8.5-9.4,12.4-14.4&#10;&#9;&#9;c3.9-5,7.4-10.2,10.7-15.5c-0.8-4.4-1.9-8.7-3.5-12.8c-5.6-13.9-26.4-31.9-60.4-52c-16.8-9.9-31.8-17.4-36.6-19.7L253.1,350.4z"/>
	<path class="st3_message-sent-83 targetColor" d="M177.8,112.3h144.3c8.3,0,15,6.7,15,15v271.8c0,8.3-6.7,15-15,15H177.8c-8.3,0-15-6.7-15-15V127.4&#10;&#9;&#9;C162.8,119.1,169.5,112.3,177.8,112.3z" style="fill: rgb(104, 225, 253);"/>
	<path class="st1_message-sent-83" d="M321.4,416.1H178.6c-9.8,0-17.7-7.9-17.7-17.7V128.2c0-9.8,7.9-17.7,17.7-17.7h142.7c9.8,0,17.7,7.9,17.7,17.7&#10;&#9;&#9;v270.2C339.1,408.2,331.1,416.1,321.4,416.1z M178.6,114.2c-7.7,0-14,6.3-14,14l0,0v270.2c0,7.7,6.3,14,14,14h142.7&#10;&#9;&#9;c7.7,0,14-6.3,14-14V128.2c0-7.7-6.3-14-14-14L178.6,114.2z"/>
	<path class="st1_message-sent-83" d="M249,404.4c-6.9,0-12.6-5.6-12.6-12.5c0-6.9,5.6-12.6,12.5-12.6c6.9,0,12.6,5.6,12.6,12.5v0&#10;&#9;&#9;C261.5,398.8,255.9,404.4,249,404.4z M249,383.1c-4.8,0-8.8,3.9-8.8,8.8s3.9,8.8,8.8,8.8s8.8-3.9,8.8-8.8l0,0&#10;&#9;&#9;C257.8,387,253.8,383.1,249,383.1L249,383.1z"/>
	<rect x="162.8" y="135.4" class="st1_message-sent-83" width="174.4" height="235.1"/>
	<path class="st1_message-sent-83" d="M337.2,372.4H162.8c-1,0-1.9-0.9-1.9-1.9V135.4c0-1,0.8-1.9,1.9-1.9c0,0,0,0,0,0h174.4c1,0,1.9,0.8,1.9,1.9&#10;&#9;&#9;c0,0,0,0,0,0v235.1C339.1,371.6,338.2,372.4,337.2,372.4z M164.7,368.7h170.6V137.3H164.7L164.7,368.7z"/>
	<path class="st1_message-sent-83" d="M241.3,126.2h-3.6c-1-0.1-1.8-1-1.7-2c0.1-0.9,0.8-1.7,1.7-1.7h3.6c1-0.1,1.9,0.7,2,1.7c0.1,1-0.7,1.9-1.7,2&#10;&#9;&#9;C241.5,126.2,241.4,126.2,241.3,126.2z"/>
	<path class="st1_message-sent-83" d="M262.2,126.2h-16c-1-0.1-1.8-1-1.7-2c0.1-0.9,0.8-1.7,1.7-1.7h16c1,0.1,1.8,1,1.7,2&#10;&#9;&#9;C263.9,125.3,263.2,126.1,262.2,126.2z"/>
	<path class="st4_message-sent-83" d="M195.4,274.6h109.3c8.2,0,14.9,6.6,14.9,14.9v25.3c0,8.2-6.6,14.9-14.9,14.9H195.4c-8.2,0-14.9-6.6-14.9-14.9&#10;&#9;&#9;v-25.3C180.5,281.2,187.2,274.6,195.4,274.6z"/>
	<path class="st1_message-sent-83" d="M304.9,331.5H195.1c-9.1,0-16.4-7.4-16.4-16.5c0,0,0,0,0,0v-25.9c0-9.1,7.4-16.4,16.4-16.4h109.9&#10;&#9;&#9;c9.1,0,16.4,7.4,16.4,16.4V315C321.4,324.1,314,331.5,304.9,331.5C304.9,331.5,304.9,331.5,304.9,331.5z M195.1,276.5&#10;&#9;&#9;c-7,0-12.7,5.7-12.7,12.7V315c0,7,5.7,12.7,12.7,12.7h109.9c7,0,12.7-5.7,12.7-12.7v-25.9c0-7-5.7-12.7-12.7-12.7L195.1,276.5z"/>
	<path class="st0_message-sent-83" d="M244.1,318.8l-14.5-16c-1.1-1.2-1-3.1,0.2-4.2c0,0,0,0,0,0l4-3.7c1.2-1.1,3.1-1,4.2,0.2c0,0,0,0,0,0l8.7,9.6&#10;&#9;&#9;l24-22.4c1.2-1.1,3.1-1.1,4.2,0.2c0,0,0,0,0,0l3.7,4c1.1,1.2,1.1,3.1-0.1,4.2l0,0L248.4,319C247.1,320.1,245.3,320,244.1,318.8z"/>
	<path class="st1_message-sent-83" d="M246.4,321.6h-0.2c-1.3-0.1-2.5-0.6-3.4-1.6l-14.5-16c-1.8-2-1.7-5.1,0.3-6.9l4-3.7c2-1.8,5.1-1.7,6.9,0.3&#10;&#9;&#9;l7.4,8.2l22.7-21c2-1.8,5.1-1.7,6.9,0.3l3.7,4c1.8,2,1.7,5.1-0.2,6.9l-30.3,28.2C248.8,321.2,247.6,321.6,246.4,321.6z M235.9,296&#10;&#9;&#9;c-0.3,0-0.5,0.1-0.8,0.3l-4,3.7c-0.5,0.4-0.5,1.1-0.1,1.6l14.5,16l0,0c0.2,0.2,0.5,0.3,0.8,0.4c0.3,0,0.6-0.1,0.8-0.3l30.3-28.2&#10;&#9;&#9;c0.5-0.4,0.5-1.1,0.1-1.6c0,0,0,0,0,0l-3.7-4c-0.4-0.4-1.1-0.5-1.6-0.1l-24,22.4c-0.7,0.7-1.9,0.7-2.6-0.1c0,0,0,0,0,0l-8.7-9.6&#10;&#9;&#9;C236.6,296.1,236.3,296,235.9,296z"/>
	<path class="st2_message-sent-83" d="M215.4,414.3c-1,4.8-2.8,9.4-5.4,13.6c-0.7,1.2-1.5,2.3-2.4,3.3c-1.6-0.4-3-0.8-4.6-1.2&#10;&#9;&#9;c-13.4-3.7-26.4-8.9-38.5-15.6l5.6-2.6c9.9-4.5,26.6-11.8,33.9-12.7C211.7,398,217.3,403.8,215.4,414.3z"/>
	<path class="st1_message-sent-83" d="M207.6,433.1c-0.2,0-0.3,0-0.4-0.1c-1.6-0.4-3.1-0.8-4.6-1.2c-13.6-3.7-26.7-9-39-15.8&#10;&#9;&#9;c-0.9-0.5-1.2-1.7-0.7-2.6c0.2-0.3,0.5-0.6,0.8-0.8l1.5-0.7c1.2-0.5,2.6-1.2,4.1-1.9c11.7-5.4,27.2-12,34.4-12.9&#10;&#9;&#9;c3.8-0.6,7.8,0.6,10.5,3.4c3,3.2,4.1,8.2,3.1,14.1l0,0c-1,5-2.9,9.8-5.7,14.2c-0.8,1.3-1.6,2.5-2.6,3.6&#10;&#9;&#9;C208.6,432.8,208.1,433,207.6,433.1z M168.7,414.5c11.1,5.8,22.8,10.4,34.9,13.7c1.1,0.3,2.2,0.6,3.4,0.9c0.6-0.7,1.1-1.4,1.5-2.2&#10;&#9;&#9;c2.5-4,4.3-8.4,5.2-13l0,0c0.8-4.7,0.1-8.5-2.1-10.8c-1.9-1.9-4.7-2.7-7.3-2.2c-7.1,0.9-23.9,8.3-33.3,12.6L168.7,414.5z"/>
	<path class="st2_message-sent-83" d="M166.5,408.6c-1.1,1.7-2.1,3.4-3.2,5.1c-29.1-16.3-53.1-40.4-69.2-69.7c7.3-2.7,15.3-3,22.8-0.6&#10;&#9;&#9;c4.1,1.3,38.2,14,38.2,14s3.3-5.4,7.8-12.7c5.7-9.4,13.3-21.8,18.5-30.3c0.7-1.2,1.4-2.2,2-3.2c3.9-6.4,14.9-22.7,28.9-17.4&#10;&#9;&#9;c13.6,5.1,7.4,17.7,2.6,28.8c-0.2,0.4-0.3,0.8-0.5,1.2c-6.9,16.2-14.9,31.8-24,46.9C183.2,382.6,175.5,394.3,166.5,408.6z"/>
	<path class="st1_message-sent-83" d="M163.3,415.6c-0.3,0-0.6-0.1-0.9-0.2c-29.4-16.5-53.6-40.8-69.9-70.4c-0.3-0.5-0.3-1.1-0.1-1.6&#10;&#9;&#9;c0.2-0.5,0.6-0.9,1.1-1.1c7.7-2.9,16.1-3.1,24-0.7c3.6,1.1,30.2,11,36.8,13.5l6.9-11.4c5.7-9.4,13.3-21.8,18.5-30.3l0.9-1.4&#10;&#9;&#9;l1.1-1.8c12.4-20.1,23.8-21,31.2-18.2c4.2,1.6,7.1,4.1,8.5,7.3c2.8,6.5-0.8,14.7-4.2,22.6l-0.6,1.4c-0.1,0.4-0.3,0.8-0.5,1.2&#10;&#9;&#9;c-6.9,16.2-15,32-24.1,47c-4.6,7.7-9.5,15.4-14.7,23.6c-2.9,4.6-6,9.4-9.2,14.5l0,0c-0.8,1.2-1.5,2.4-2.3,3.6l-0.9,1.5&#10;&#9;&#9;C164.6,415.3,164,415.6,163.3,415.6z M96.9,345.1c15.6,27.5,38.4,50.3,65.8,66.1c0.8-1.2,1.5-2.4,2.3-3.6c3.2-5.1,6.3-9.9,9.2-14.5&#10;&#9;&#9;c5.2-8.1,10-15.8,14.6-23.5c9.1-14.9,17-30.5,23.9-46.6c0.2-0.4,0.3-0.8,0.5-1.2l0.6-1.4c3-6.8,6.4-14.5,4.2-19.6&#10;&#9;&#9;c-1-2.3-3-4-6.3-5.3c-11.1-4.1-20.6,6.8-26.7,16.6c-0.3,0.6-0.7,1.2-1.1,1.8l-0.9,1.4c-5.2,8.5-12.8,21-18.5,30.3&#10;&#9;&#9;c-4.5,7.3-7.8,12.7-7.8,12.7c-0.5,0.8-1.4,1.1-2.3,0.8c-0.3-0.1-34.1-12.8-38.1-14C110,343.3,103.2,343.2,96.9,345.1z M166.5,408.6&#10;&#9;&#9;L166.5,408.6z"/>
	<path class="st2_message-sent-83" d="M340.3,405.5c0,0-1.3-1.2-3.5-3.4c-6.3-5.9-19.8-18.9-31.7-31.6c-10-10.7-18.8-21.1-21.1-26.9&#10;&#9;&#9;c-3.3-8.1-1.9-15.7,2.4-21.2c4.1-5,10-8.1,16.4-8.6c2.7-0.3,7.1,1.9,12.4,5.6c6.4,4.5,14.1,11.4,22,18.9&#10;&#9;&#9;c17.9,17.1,32.8,31.7,37.6,37"/>
	<path class="st1_message-sent-83" d="M340.3,407.4c-0.5,0-0.9-0.2-1.3-0.5c0,0-1.3-1.2-3.6-3.4c-4.2-3.9-18.9-17.9-31.7-31.7&#10;&#9;&#9;c-12.1-13-19.4-22.2-21.5-27.5c-3.3-8.2-2.4-16.6,2.6-23c4.4-5.4,10.8-8.8,17.7-9.4c3.1-0.3,7.5,1.5,13.7,5.9&#10;&#9;&#9;c5.9,4.1,13.4,10.6,22.3,19.1c21.1,20.2,33.4,32.4,37.7,37.2c0.7,0.8,0.6,2-0.2,2.7s-2,0.6-2.7-0.2l0,0&#10;&#9;&#9;c-4.1-4.7-16.8-17.1-37.5-36.9c-8.8-8.4-16.1-14.7-21.8-18.7c-6.9-4.9-9.9-5.4-11.1-5.3c-5.9,0.5-11.3,3.4-15.1,7.9&#10;&#9;&#9;c-4.2,5.4-5,12.2-2.1,19.3c1.3,3.3,6,10.6,20.7,26.3c12.8,13.7,27.4,27.6,31.6,31.5c2.2,2.1,3.5,3.3,3.5,3.3&#10;&#9;&#9;c0.8,0.7,0.8,1.9,0.1,2.7C341.3,407.2,340.8,407.4,340.3,407.4L340.3,407.4z"/>
</g>
<g id="message_message-sent-83">
	<path class="st0_message-sent-83" d="M309.8,71.3V223c0,4.2-3.4,7.5-7.6,7.5H197.8c-4.2,0-7.6-3.4-7.6-7.5V71.3c0-4.2,3.4-7.6,7.6-7.6h104.4&#10;&#9;&#9;C306.4,63.8,309.8,67.1,309.8,71.3z"/>
	<path class="st1_message-sent-83" d="M301.6,232.4H198.4c-5.6,0-10.1-4.5-10.1-10.1V72c0-5.6,4.5-10.1,10.1-10.1h103.1c5.6,0,10.1,4.5,10.1,10.1&#10;&#9;&#9;v150.3C311.7,227.9,307.1,232.4,301.6,232.4z M198.4,65.6c-3.5,0-6.3,2.8-6.3,6.3c0,0,0,0,0,0v150.3c0,3.5,2.8,6.3,6.3,6.3h103.1&#10;&#9;&#9;c3.5,0,6.3-2.8,6.3-6.3V72c0-3.5-2.8-6.3-6.3-6.3L198.4,65.6z"/>
	<path class="st1_message-sent-83" d="M307.5,229.8c-0.5,0-1.1-0.2-1.4-0.6l-71-80.8c-0.6-0.7-0.6-1.8,0-2.5l71-80.8c0.7-0.8,1.9-0.9,2.7-0.2&#10;&#9;&#9;c0.8,0.7,0.9,1.9,0.2,2.7l0,0l-69.9,79.6l69.9,79.6c0.7,0.8,0.6,1.9-0.1,2.6c0,0,0,0,0,0C308.4,229.6,308,229.8,307.5,229.8z"/>
	<path class="st1_message-sent-83" d="M192.5,229.8c-0.5,0-0.9-0.2-1.2-0.5c-0.8-0.7-0.9-1.9-0.2-2.6c0,0,0,0,0,0l57.7-65.3c0.7-0.8,1.9-0.9,2.7-0.2&#10;&#9;&#9;c0.8,0.7,0.9,1.9,0.2,2.7l0,0l-57.7,65.3C193.5,229.6,193,229.8,192.5,229.8z"/>
	<path class="st1_message-sent-83" d="M250.2,133.5c-0.5,0-1.1-0.2-1.4-0.6l-57.7-65.3c-0.7-0.8-0.6-2,0.2-2.7s2-0.6,2.7,0.2l0,0l57.7,65.3&#10;&#9;&#9;c0.7,0.8,0.6,2-0.2,2.7c0,0,0,0,0,0C251.1,133.3,250.6,133.5,250.2,133.5z"/>
	<path class="st3_message-sent-83 targetColor" d="M272.1,260.3c-1,0-1.9-0.8-1.9-1.9l0,0v-44.7c0-1,0.8-1.9,1.9-1.9s1.9,0.8,1.9,1.9l0,0v44.7&#10;&#9;&#9;C273.9,259.4,273.1,260.3,272.1,260.3L272.1,260.3z" style="fill: rgb(104, 225, 253);"/>
	<path class="st3_message-sent-83 targetColor" d="M249,269.7c-1,0-1.9-0.8-1.9-1.9l0,0v-78.5c0.1-1,1-1.8,2-1.7c0.9,0.1,1.7,0.8,1.7,1.7v78.5&#10;&#9;&#9;C250.9,268.8,250,269.7,249,269.7z" style="fill: rgb(104, 225, 253);"/>
	<path class="st3_message-sent-83 targetColor" d="M220.5,257c-1,0-1.9-0.8-1.9-1.9v-19c0.1-1,1-1.8,2-1.7c0.9,0.1,1.7,0.8,1.7,1.7v19&#10;&#9;&#9;C222.4,256.1,221.6,257,220.5,257C220.5,257,220.5,257,220.5,257z" style="fill: rgb(104, 225, 253);"/>
</g>
<g id="lines_message-sent-83">
	<path class="st5_message-sent-83" d="M132.2,255.6c-1,0-1.9-0.8-1.9-1.9c0,0,0,0,0,0v-68.4c0-1,0.8-1.9,1.9-1.9s1.9,0.8,1.9,1.9c0,0,0,0,0,0v68.4&#10;&#9;&#9;C134.1,254.8,133.2,255.6,132.2,255.6z"/>
	<path class="st5_message-sent-83" d="M103.6,297.9c-1,0-1.9-0.9-1.9-1.9v-56.5c0.1-1,1-1.8,2-1.7c0.9,0.1,1.7,0.8,1.7,1.7V296&#10;&#9;&#9;C105.4,297.1,104.6,297.9,103.6,297.9C103.6,297.9,103.6,297.9,103.6,297.9z"/>
	<path class="st5_message-sent-83" d="M365.4,230.4c-1,0-1.9-0.8-1.9-1.9v-49.3c-0.1-1,0.7-1.9,1.7-2c1-0.1,1.9,0.7,2,1.7c0,0.1,0,0.2,0,0.3v49.3&#10;&#9;&#9;C367.3,229.6,366.5,230.4,365.4,230.4z"/>
	<path class="st5_message-sent-83" d="M381,257.3c-1,0-1.9-0.8-1.9-1.9v-31.8c0.1-1,1-1.8,2-1.7c0.9,0.1,1.7,0.8,1.7,1.7v31.9&#10;&#9;&#9;C382.9,256.5,382,257.3,381,257.3z"/>
	<path class="st5_message-sent-83" d="M402.1,283.5c-1,0-1.9-0.8-1.9-1.9c0,0,0,0,0,0v-62c-0.1-1,0.7-1.9,1.7-2c1-0.1,1.9,0.7,2,1.7&#10;&#9;&#9;c0,0.1,0,0.2,0,0.3v62C404,282.6,403.1,283.5,402.1,283.5z"/>
</g>
</svg>